<svg width="50" height="49" viewBox="0 0 50 49" fill="none" xmlns="http://www.w3.org/2000/svg">
<g clip-path="url(#clip0_828_16296)">
<path fill-rule="evenodd" clip-rule="evenodd" d="M30.7867 0.5C41.032 0.5 49.3333 8.80267 49.3333 19.0467C49.3333 29.2867 41.0307 37.5907 30.7867 37.5907H14.1467L0 48.5V0.5H30.7867ZM31.1787 6.116H21.2C20.527 6.11581 19.8789 6.37009 19.3855 6.82782C18.8922 7.28555 18.5901 7.91289 18.54 8.584L18.5333 8.784L18.532 13.4013L18.6267 12.5C18.4893 16.0667 20.2267 17.8507 23.84 17.8507C24.3307 17.8507 24.7333 17.7493 25.076 17.6C26.032 16.1973 27.7013 15.2693 29.6 15.2693C32.5733 15.2693 34.9813 17.5427 34.9813 20.3467C34.9813 23.1507 32.572 25.4227 29.6 25.4227C27.324 25.4227 25.3773 24.0893 24.5907 22.2053C24.316 22.0347 23.956 21.9187 23.468 21.9187C20.0813 21.9187 18.4547 23.7027 18.584 27.2693L18.5307 26.7413L18.532 29.308C18.5321 29.9805 18.7864 30.6282 19.2438 31.1212C19.7012 31.6142 20.328 31.9162 20.9987 31.9667L21.1987 31.9747H31.1787C34.4705 31.9746 37.6327 30.6912 39.9934 28.3969C42.3541 26.1027 43.7273 22.9785 43.8213 19.688L43.8267 19.328V18.764C43.8268 17.103 43.4998 15.4582 42.8643 13.9236C42.2287 12.389 41.2971 10.9946 40.1225 9.82012C38.948 8.64561 37.5537 7.71397 36.0191 7.07841C34.4844 6.44286 32.8397 6.11582 31.1787 6.116Z" fill="#4861E6"/>
</g>
<defs>
<clipPath id="clip0_828_16296">
<rect width="49.3333" height="48" fill="white" transform="translate(0 0.5)"/>
</clipPath>
</defs>
</svg>
