<svg width="136" height="217" viewBox="0 0 136 217" fill="none" xmlns="http://www.w3.org/2000/svg">
<path d="M80.7883 49.584L42.668 15.8247L73.5764 0L129.211 8.43983L135.393 33.7593L80.7883 49.584Z" fill="url(#paint0_linear_2_5739)"/>
<path d="M38.543 205.727L80.7844 49.5903L135.389 33.7656L38.543 205.727Z" fill="url(#paint1_linear_2_5739)"/>
<path d="M50.9063 216.277L38.543 205.727L135.389 33.7656L101.39 190.957L50.9063 216.277Z" fill="url(#paint2_linear_2_5739)"/>
<path d="M14.8516 157.187L42.6691 15.8203L80.7894 49.5796L44.7297 183.562L14.8516 157.187Z" fill="url(#paint3_linear_2_5739)"/>
<path d="M0.429688 166.682L42.6711 15.8203L14.8536 157.187L0.429688 166.682Z" fill="url(#paint4_linear_2_5739)"/>
<path d="M0.429688 166.686L38.55 205.72L44.7317 183.566L14.8536 157.191L0.429688 166.686Z" fill="url(#paint5_linear_2_5739)"/>
<g filter="url(#filter0_f_2_5739)">
<ellipse cx="81.7452" cy="51.8577" rx="21.6359" ry="22.1545" fill="white"/>
</g>
<defs>
<filter id="filter0_f_2_5739" x="41.4616" y="11.0553" width="80.5671" height="81.6047" filterUnits="userSpaceOnUse" color-interpolation-filters="sRGB">
<feFlood flood-opacity="0" result="BackgroundImageFix"/>
<feBlend mode="normal" in="SourceGraphic" in2="BackgroundImageFix" result="shape"/>
<feGaussianBlur stdDeviation="9.32389" result="effect1_foregroundBlur_2_5739"/>
</filter>
<linearGradient id="paint0_linear_2_5739" x1="74.6066" y1="5.22111e-07" x2="82.1602" y2="48.4758" gradientUnits="userSpaceOnUse">
<stop stop-color="#CDD5F8"/>
<stop offset="1" stop-color="#99ABF8"/>
</linearGradient>
<linearGradient id="paint1_linear_2_5739" x1="124.056" y1="36.9306" x2="33.1851" y2="206.065" gradientUnits="userSpaceOnUse">
<stop stop-color="#C4CEFA"/>
<stop offset="1" stop-color="#EFF2FE"/>
</linearGradient>
<linearGradient id="paint2_linear_2_5739" x1="133.329" y1="34.8206" x2="84.8672" y2="215.715" gradientUnits="userSpaceOnUse">
<stop stop-color="#9CACF8"/>
<stop offset="1" stop-color="#E7EBFC"/>
</linearGradient>
<linearGradient id="paint3_linear_2_5739" x1="47.8205" y1="15.8203" x2="47.8205" y2="183.562" gradientUnits="userSpaceOnUse">
<stop stop-color="#ECEFFC"/>
<stop offset="1" stop-color="#A5B3FA"/>
</linearGradient>
<linearGradient id="paint4_linear_2_5739" x1="41.6409" y1="15.8203" x2="-1.41631" y2="165.095" gradientUnits="userSpaceOnUse">
<stop stop-color="#A7B4EB"/>
<stop offset="1" stop-color="#E2E7FE"/>
</linearGradient>
<linearGradient id="paint5_linear_2_5739" x1="10.7325" y1="159.301" x2="38.4712" y2="205.145" gradientUnits="userSpaceOnUse">
<stop stop-color="#ACBAF9"/>
<stop offset="1" stop-color="#CCD4FB"/>
</linearGradient>
</defs>
</svg>
