<svg width="191" height="226" viewBox="0 0 191 226" fill="none" xmlns="http://www.w3.org/2000/svg">
<g clip-path="url(#clip0_49_1475)">
<path d="M107.463 0.76123L11.689 112.183L61.7668 134.717L107.463 0.76123Z" fill="url(#paint0_linear_49_1475)"/>
<path d="M107.463 0.76123L11.689 112.183L61.7668 134.717L107.463 0.76123Z" fill="url(#paint1_linear_49_1475)"/>
<path d="M25.4604 170.398L11.689 112.183L61.7668 134.718L25.4604 170.398Z" fill="url(#paint2_linear_49_1475)"/>
<path d="M88.054 146.611L107.459 0.76123L61.7632 134.717L88.054 146.611Z" fill="url(#paint3_linear_49_1475)"/>
<path d="M111.847 226.105L61.7688 134.714L25.4624 170.394L111.847 226.105Z" fill="url(#paint4_linear_49_1475)"/>
<path d="M119.353 159.753L61.7632 134.714L111.841 226.105L119.353 159.753Z" fill="url(#paint5_linear_49_1475)"/>
<path d="M119.353 159.753L61.7632 134.714L111.841 226.105L119.353 159.753Z" fill="url(#paint6_linear_49_1475)"/>
<path d="M188.216 141.603L107.465 0.76123L88.0601 146.611L119.359 159.756L188.216 141.603Z" fill="url(#paint7_linear_49_1475)"/>
<path d="M111.845 226.111L119.357 159.759L188.214 140.98L111.845 226.111Z" fill="url(#paint8_linear_49_1475)"/>
<g opacity="0.32" filter="url(#filter0_f_49_1475)">
<ellipse cx="33.1239" cy="7.60679" rx="33.1239" ry="7.60679" transform="matrix(0.873652 -0.486551 0.486563 0.873645 2.4624 99.6792)" fill="url(#paint9_radial_49_1475)"/>
</g>
<path d="M8.51679 26.2996L0.0397822 71.245L17.048 69.5257L8.51679 26.2996Z" fill="url(#paint10_linear_49_1475)"/>
<path d="M8.51679 26.2996L0.0397822 71.245L17.048 69.5257L8.51679 26.2996Z" fill="url(#paint11_linear_49_1475)"/>
<path d="M12.8183 84.7964L0.0444336 71.2456L17.0527 69.5263L12.8183 84.7964Z" fill="url(#paint12_linear_49_1475)"/>
<path d="M25.9903 68.6454L8.52004 26.305L17.0513 69.5312L25.9903 68.6454Z" fill="url(#paint13_linear_49_1475)"/>
<path d="M44.777 86.372L17.0512 69.5282L12.8168 84.7983L44.777 86.372Z" fill="url(#paint14_linear_49_1475)"/>
<path d="M36.4714 67.3134L17.0483 69.5269L44.7742 86.3707L36.4714 67.3134Z" fill="url(#paint15_linear_49_1475)"/>
<path d="M36.4714 67.3134L17.0483 69.5269L44.7742 86.3707L36.4714 67.3134Z" fill="url(#paint16_linear_49_1475)"/>
<path d="M52.2142 51.7009L8.52203 26.2995L25.9923 68.6399L36.4763 67.3122L52.2142 51.7009Z" fill="url(#paint17_linear_49_1475)"/>
<path d="M44.7757 86.3721L36.473 67.3149L52.1134 51.5348L44.7757 86.3721Z" fill="url(#paint18_linear_49_1475)"/>
<g opacity="0.32" filter="url(#filter1_f_49_1475)">
<ellipse cx="20.0979" cy="4.61543" rx="20.0979" ry="4.61543" transform="matrix(-0.85517 -0.518348 -0.51836 0.855162 171.291 53.0444)" fill="url(#paint19_radial_49_1475)"/>
</g>
<path d="M169.257 8.41795L173.394 35.8593L163.12 34.4374L169.257 8.41795Z" fill="url(#paint20_linear_49_1475)"/>
<path d="M169.257 8.41795L173.394 35.8593L163.12 34.4374L169.257 8.41795Z" fill="url(#paint21_linear_49_1475)"/>
<path d="M165.345 43.7883L173.393 35.8569L163.118 34.435L165.345 43.7883Z" fill="url(#paint22_linear_49_1475)"/>
<path d="M157.716 33.7009L169.253 8.41793L163.116 34.4374L157.716 33.7009Z" fill="url(#paint23_linear_49_1475)"/>
<path d="M145.932 44.0332L163.119 34.4387L165.346 43.792L145.932 44.0332Z" fill="url(#paint24_linear_49_1475)"/>
<path d="M151.392 32.6596L163.119 34.4351L145.932 44.0296L151.392 32.6596Z" fill="url(#paint25_linear_49_1475)"/>
<path d="M151.392 32.6596L163.119 34.4351L145.932 44.0296L151.392 32.6596Z" fill="url(#paint26_linear_49_1475)"/>
<path d="M142.194 22.8477L169.253 8.42056L157.715 33.7035L151.388 32.6646L142.194 22.8477Z" fill="url(#paint27_linear_49_1475)"/>
<path d="M145.932 44.032L151.391 32.662L142.26 22.7449L145.932 44.032Z" fill="url(#paint28_linear_49_1475)"/>
<g opacity="0.75" filter="url(#filter2_f_49_1475)">
<ellipse cx="27.7709" cy="8.05592" rx="27.7709" ry="8.05592" transform="matrix(0.815998 -0.578055 0.578067 0.815989 19.9624 104.965)" fill="url(#paint29_radial_49_1475)"/>
</g>
<g opacity="0.88" filter="url(#filter3_f_49_1475)">
<ellipse cx="118.874" cy="155.407" rx="30.5716" ry="31.3168" fill="#FFFCEE"/>
</g>
</g>
<defs>
<filter id="filter0_f_49_1475" x="-34.1371" y="32.709" width="138.479" height="114.999" filterUnits="userSpaceOnUse" color-interpolation-filters="sRGB">
<feFlood flood-opacity="0" result="BackgroundImageFix"/>
<feBlend mode="normal" in="SourceGraphic" in2="BackgroundImageFix" result="shape"/>
<feGaussianBlur stdDeviation="20.031" result="effect1_foregroundBlur_49_1475"/>
</filter>
<filter id="filter1_f_49_1475" x="94.2945" y="-4.63178" width="114.834" height="102.411" filterUnits="userSpaceOnUse" color-interpolation-filters="sRGB">
<feFlood flood-opacity="0" result="BackgroundImageFix"/>
<feBlend mode="normal" in="SourceGraphic" in2="BackgroundImageFix" result="shape"/>
<feGaussianBlur stdDeviation="20.031" result="effect1_foregroundBlur_49_1475"/>
</filter>
<filter id="filter2_f_49_1475" x="4.11014" y="58.1028" width="86.3403" height="74.7651" filterUnits="userSpaceOnUse" color-interpolation-filters="sRGB">
<feFlood flood-opacity="0" result="BackgroundImageFix"/>
<feBlend mode="normal" in="SourceGraphic" in2="BackgroundImageFix" result="shape"/>
<feGaussianBlur stdDeviation="10.0155" result="effect1_foregroundBlur_49_1475"/>
</filter>
<filter id="filter3_f_49_1475" x="67.0193" y="102.807" width="103.709" height="105.199" filterUnits="userSpaceOnUse" color-interpolation-filters="sRGB">
<feFlood flood-opacity="0" result="BackgroundImageFix"/>
<feBlend mode="normal" in="SourceGraphic" in2="BackgroundImageFix" result="shape"/>
<feGaussianBlur stdDeviation="10.6415" result="effect1_foregroundBlur_49_1475"/>
</filter>
<linearGradient id="paint0_linear_49_1475" x1="106.837" y1="2.01316" x2="26.714" y2="112.184" gradientUnits="userSpaceOnUse">
<stop stop-color="#F2BD69"/>
<stop offset="1" stop-color="#F7DAA7"/>
</linearGradient>
<linearGradient id="paint1_linear_49_1475" x1="120.355" y1="154.668" x2="-4.45719" y2="152.622" gradientUnits="userSpaceOnUse">
<stop stop-color="#D2942D"/>
<stop offset="0.515625" stop-color="#FDE989"/>
<stop offset="1" stop-color="#FECB50"/>
</linearGradient>
<linearGradient id="paint2_linear_49_1475" x1="45.8141" y1="148.696" x2="-14.7876" y2="154.461" gradientUnits="userSpaceOnUse">
<stop stop-color="#FDE989"/>
<stop offset="1" stop-color="#D2942D"/>
</linearGradient>
<linearGradient id="paint3_linear_49_1475" x1="107.699" y1="2.55249" x2="147.342" y2="27.0137" gradientUnits="userSpaceOnUse">
<stop stop-color="#FDE989"/>
<stop offset="1" stop-color="#FECB50"/>
</linearGradient>
<linearGradient id="paint4_linear_49_1475" x1="123.475" y1="239.716" x2="38.1774" y2="231.526" gradientUnits="userSpaceOnUse">
<stop stop-color="#D2942D"/>
<stop offset="1" stop-color="#FDE989"/>
</linearGradient>
<linearGradient id="paint5_linear_49_1475" x1="114.345" y1="199.189" x2="56.1306" y2="125.95" gradientUnits="userSpaceOnUse">
<stop stop-color="#F6D28E"/>
<stop offset="1" stop-color="#FAE6C0"/>
</linearGradient>
<linearGradient id="paint6_linear_49_1475" x1="61.469" y1="134.528" x2="116.065" y2="138.474" gradientUnits="userSpaceOnUse">
<stop stop-color="#FDE989"/>
<stop offset="1" stop-color="#FECB50"/>
</linearGradient>
<linearGradient id="paint7_linear_49_1475" x1="153.935" y1="149.443" x2="72.7376" y2="126.454" gradientUnits="userSpaceOnUse">
<stop stop-color="#FDE989"/>
<stop offset="1" stop-color="#FECB50"/>
</linearGradient>
<linearGradient id="paint8_linear_49_1475" x1="235.955" y1="183.743" x2="172.18" y2="230.296" gradientUnits="userSpaceOnUse">
<stop stop-color="#D2942D"/>
<stop offset="1" stop-color="#FDE989"/>
</linearGradient>
<radialGradient id="paint9_radial_49_1475" cx="0" cy="0" r="1" gradientUnits="userSpaceOnUse" gradientTransform="translate(33.1239 7.60679) rotate(-177.899) scale(76.0209 154.344)">
<stop stop-color="#1F0D24"/>
<stop offset="1" stop-color="#242D55" stop-opacity="0"/>
</radialGradient>
<linearGradient id="paint10_linear_49_1475" x1="8.54289" y1="26.7345" x2="4.09012" y2="68.9067" gradientUnits="userSpaceOnUse">
<stop stop-color="#F2BD69"/>
<stop offset="1" stop-color="#F7DAA7"/>
</linearGradient>
<linearGradient id="paint11_linear_49_1475" x1="35.9485" y1="65.7852" x2="1.98166" y2="84.6609" gradientUnits="userSpaceOnUse">
<stop stop-color="#D2942D"/>
<stop offset="0.515625" stop-color="#FDE989"/>
<stop offset="1" stop-color="#FECB50"/>
</linearGradient>
<linearGradient id="paint12_linear_49_1475" x1="14.9277" y1="75.7778" x2="-0.512698" y2="86.7647" gradientUnits="userSpaceOnUse">
<stop stop-color="#FDE989"/>
<stop offset="1" stop-color="#D2942D"/>
</linearGradient>
<linearGradient id="paint13_linear_49_1475" x1="8.86357" y1="26.7506" x2="23.3584" y2="27.1747" gradientUnits="userSpaceOnUse">
<stop stop-color="#FDE989"/>
<stop offset="1" stop-color="#FECB50"/>
</linearGradient>
<linearGradient id="paint14_linear_49_1475" x1="50.0306" y1="88.2316" x2="25.7602" y2="99.3003" gradientUnits="userSpaceOnUse">
<stop stop-color="#D2942D"/>
<stop offset="1" stop-color="#FDE989"/>
</linearGradient>
<linearGradient id="paint15_linear_49_1475" x1="41.2596" y1="78.7245" x2="14.1656" y2="68.0409" gradientUnits="userSpaceOnUse">
<stop stop-color="#F6D28E"/>
<stop offset="1" stop-color="#FAE6C0"/>
</linearGradient>
<linearGradient id="paint16_linear_49_1475" x1="16.94" y1="69.5224" x2="32.2729" y2="62.0884" gradientUnits="userSpaceOnUse">
<stop stop-color="#FDE989"/>
<stop offset="1" stop-color="#FECB50"/>
</linearGradient>
<linearGradient id="paint17_linear_49_1475" x1="44.1927" y1="59.1502" x2="18.7242" y2="65.5911" gradientUnits="userSpaceOnUse">
<stop stop-color="#FDE989"/>
<stop offset="1" stop-color="#FECB50"/>
</linearGradient>
<linearGradient id="paint18_linear_49_1475" x1="71.6403" y1="55.6328" x2="61.6931" y2="78.1094" gradientUnits="userSpaceOnUse">
<stop stop-color="#D2942D"/>
<stop offset="1" stop-color="#FDE989"/>
</linearGradient>
<radialGradient id="paint19_radial_49_1475" cx="0" cy="0" r="1" gradientUnits="userSpaceOnUse" gradientTransform="translate(20.0979 4.61543) rotate(-177.899) scale(46.1257 93.6482)">
<stop stop-color="#1F0D24"/>
<stop offset="1" stop-color="#242D55" stop-opacity="0"/>
</radialGradient>
<linearGradient id="paint20_linear_49_1475" x1="169.231" y1="8.68109" x2="170.99" y2="34.3511" gradientUnits="userSpaceOnUse">
<stop stop-color="#F2BD69"/>
<stop offset="1" stop-color="#F7DAA7"/>
</linearGradient>
<linearGradient id="paint21_linear_49_1475" x1="151.743" y1="31.7477" x2="171.917" y2="43.9506" gradientUnits="userSpaceOnUse">
<stop stop-color="#D2942D"/>
<stop offset="0.515625" stop-color="#FDE989"/>
<stop offset="1" stop-color="#FECB50"/>
</linearGradient>
<linearGradient id="paint22_linear_49_1475" x1="164.267" y1="38.2729" x2="173.384" y2="45.2792" gradientUnits="userSpaceOnUse">
<stop stop-color="#FDE989"/>
<stop offset="1" stop-color="#D2942D"/>
</linearGradient>
<linearGradient id="paint23_linear_49_1475" x1="169.035" y1="8.68042" x2="160.237" y2="8.6142" gradientUnits="userSpaceOnUse">
<stop stop-color="#FDE989"/>
<stop offset="1" stop-color="#FECB50"/>
</linearGradient>
<linearGradient id="paint24_linear_49_1475" x1="142.705" y1="45.0435" x2="157.174" y2="52.2964" gradientUnits="userSpaceOnUse">
<stop stop-color="#D2942D"/>
<stop offset="1" stop-color="#FDE989"/>
</linearGradient>
<linearGradient id="paint25_linear_49_1475" x1="148.234" y1="39.4718" x2="164.9" y2="33.5984" gradientUnits="userSpaceOnUse">
<stop stop-color="#F6D28E"/>
<stop offset="1" stop-color="#FAE6C0"/>
</linearGradient>
<linearGradient id="paint26_linear_49_1475" x1="163.185" y1="34.4348" x2="154.054" y2="29.5851" gradientUnits="userSpaceOnUse">
<stop stop-color="#FDE989"/>
<stop offset="1" stop-color="#FECB50"/>
</linearGradient>
<linearGradient id="paint27_linear_49_1475" x1="146.891" y1="27.5435" x2="162.19" y2="32.0171" gradientUnits="userSpaceOnUse">
<stop stop-color="#FDE989"/>
<stop offset="1" stop-color="#FECB50"/>
</linearGradient>
<linearGradient id="paint28_linear_49_1475" x1="130.329" y1="24.794" x2="135.859" y2="38.6445" gradientUnits="userSpaceOnUse">
<stop stop-color="#D2942D"/>
<stop offset="1" stop-color="#FDE989"/>
</linearGradient>
<radialGradient id="paint29_radial_49_1475" cx="0" cy="0" r="1" gradientUnits="userSpaceOnUse" gradientTransform="translate(27.7709 8.05592) rotate(-177.346) scale(63.761 163.391)">
<stop stop-color="#B06E09"/>
<stop offset="1" stop-color="#F19912" stop-opacity="0"/>
</radialGradient>
<clipPath id="clip0_49_1475">
<rect width="191" height="226" fill="white" transform="translate(0.000488281)"/>
</clipPath>
</defs>
</svg>
