<svg width="340" height="121" viewBox="0 0 340 121" fill="none" xmlns="http://www.w3.org/2000/svg">
<path d="M171.011 71.1091L170.556 70.607L171.011 71.1091ZM339.538 36.2967C339.765 35.9995 339.709 35.5744 339.411 35.3472L334.568 31.6453C334.27 31.4181 333.845 31.475 333.618 31.7722C333.391 32.0694 333.448 32.4945 333.745 32.7217L338.05 36.0123L334.76 40.3178C334.533 40.6151 334.59 41.0402 334.887 41.2673C335.184 41.4945 335.609 41.4377 335.836 41.1405L339.538 36.2967ZM0.622155 61.5176C0.982916 61.7502 1.34327 61.9945 1.7034 62.2501L2.4874 61.1452C2.11179 60.8787 1.73483 60.6231 1.35636 60.379L0.622155 61.5176ZM3.83085 63.8881C4.5047 64.4462 5.1784 65.0402 5.85317 65.6669L6.77514 64.6743C6.08374 64.0321 5.39076 63.421 4.695 62.8447L3.83085 63.8881ZM7.77421 67.5331C8.39587 68.1622 9.01897 68.816 9.6445 69.492L10.6389 68.5719C10.0045 67.8864 9.37117 67.2218 8.73786 66.5809L7.77421 67.5331ZM11.4686 71.5152C12.0531 72.179 12.6402 72.8594 13.2308 73.5545L14.2632 72.6774C13.6683 71.9771 13.0759 71.2905 12.4854 70.6199L11.4686 71.5152ZM14.9828 75.645C15.5537 76.3345 16.1283 77.0353 16.7072 77.7458L17.7575 76.89C17.1769 76.1775 16.5999 75.4738 16.0262 74.781L14.9828 75.645ZM18.4204 79.8583C18.9889 80.5618 19.5616 81.2719 20.1399 81.9884L21.194 81.1375C20.6164 80.4218 20.0429 79.7106 19.4741 79.0067L18.4204 79.8583ZM21.8479 84.0999C22.4195 84.8044 22.9965 85.5127 23.5794 86.2232L24.6268 85.3639C24.0458 84.6557 23.4704 83.9494 22.8999 83.2463L21.8479 84.0999ZM25.3148 88.3219C25.8966 89.0194 26.4845 89.7176 27.0792 90.4151L28.1102 89.5362C27.519 88.8428 26.9342 88.1483 26.3552 87.4541L25.3148 88.3219ZM28.865 92.4831C29.4643 93.1675 30.0705 93.8499 30.6842 94.5289L31.6893 93.6205C31.0808 92.9472 30.4793 92.2701 29.8843 91.5906L28.865 92.4831ZM32.5383 96.5439C33.1616 97.2088 33.7927 97.869 34.4321 98.5233L35.401 97.5764C34.7685 96.9292 34.1439 96.2758 33.5266 95.6173L32.5383 96.5439ZM36.371 100.462C37.0242 101.1 37.6861 101.731 38.3571 102.353L39.2783 101.36C38.6162 100.746 37.9628 100.123 37.3176 99.4932L36.371 100.462ZM40.3964 104.192C41.0844 104.794 41.782 105.387 42.4896 105.968L43.3498 104.922C42.6535 104.349 41.9667 103.766 41.2888 103.172L40.3964 104.192ZM44.6426 107.678C45.369 108.235 46.1058 108.779 46.8536 109.31L47.6378 108.205C46.904 107.684 46.1805 107.15 45.4668 106.603L44.6426 107.678ZM49.1291 110.86C49.8957 111.36 50.6737 111.845 51.4634 112.314L52.1555 111.15C51.3825 110.69 50.6206 110.215 49.8693 109.725L49.1291 110.86ZM53.8634 113.67C54.6698 114.102 55.4881 114.517 56.3188 114.914L56.9026 113.692C56.0913 113.304 55.2916 112.899 54.5033 112.476L53.8634 113.67ZM58.8363 116.043C59.6788 116.397 60.5338 116.731 61.4015 117.045L61.863 115.772C61.0167 115.465 60.1826 115.139 59.3604 114.794L58.8363 116.043ZM64.0197 117.92C64.8917 118.186 65.7762 118.433 66.6736 118.657L67.0029 117.343C66.1282 117.124 65.266 116.884 64.4159 116.624L64.0197 117.92ZM69.3688 119.26C70.2605 119.435 71.1645 119.589 72.0811 119.721L72.2745 118.38C71.3807 118.251 70.4993 118.101 69.6301 117.93L69.3688 119.26ZM74.8284 120.047C75.7281 120.131 76.6396 120.194 77.5632 120.235L77.6235 118.882C76.7217 118.842 75.8321 118.78 74.9542 118.698L74.8284 120.047ZM80.3439 120.292C81.2396 120.29 82.1462 120.267 83.064 120.223L82.9992 118.869C82.1014 118.912 81.215 118.935 80.3398 118.938L80.3439 120.292ZM85.8513 120.027C86.7383 119.946 87.6354 119.845 88.5429 119.724L88.3643 118.381C87.4747 118.5 86.5957 118.598 85.7272 118.678L85.8513 120.027ZM91.2756 119.306C92.1669 119.151 93.068 118.978 93.9791 118.786L93.6991 117.46C92.8041 117.649 91.9193 117.819 91.0445 117.971L91.2756 119.306ZM96.6294 118.178C97.5221 117.957 98.424 117.718 99.3355 117.461L98.9668 116.157C98.0696 116.411 97.1821 116.646 96.3042 116.863L96.6294 118.178ZM101.92 116.687C102.777 116.417 103.643 116.13 104.517 115.826L104.073 114.546C103.211 114.846 102.357 115.129 101.512 115.395L101.92 116.687ZM107.165 114.865C107.985 114.555 108.812 114.23 109.646 113.89L109.135 112.636C108.311 112.971 107.494 113.292 106.685 113.598L107.165 114.865ZM112.168 112.829C113.015 112.46 113.871 112.076 114.733 111.677L114.165 110.448C113.311 110.842 112.465 111.222 111.627 111.586L112.168 112.829ZM117.148 110.53C117.952 110.138 118.762 109.733 119.579 109.315L118.961 108.109C118.152 108.523 117.35 108.924 116.554 109.312L117.148 110.53ZM122.048 108.02C122.841 107.595 123.64 107.157 124.445 106.707L123.783 105.525C122.985 105.971 122.193 106.405 121.408 106.826L122.048 108.02ZM126.776 105.379C127.558 104.924 128.346 104.458 129.14 103.98L128.441 102.819C127.653 103.294 126.871 103.756 126.095 104.207L126.776 105.379ZM131.539 102.51C132.287 102.044 133.04 101.568 133.798 101.081L133.065 99.9408C132.313 100.425 131.565 100.898 130.822 101.361L131.539 102.51ZM136.055 99.609C136.812 99.1082 137.574 98.5971 138.341 98.0755L137.58 96.9552C136.817 97.4736 136.06 97.9815 135.308 98.479L136.055 99.609ZM140.658 96.4793C141.381 95.974 142.109 95.4596 142.841 94.9359L142.053 93.834C141.325 94.3547 140.601 94.8662 139.882 95.3685L140.658 96.4793ZM145.018 93.3614C145.747 92.8275 146.481 92.2845 147.22 91.7323L146.408 90.6474C145.674 91.1968 144.943 91.737 144.218 92.2681L145.018 93.3614ZM149.447 90.0479C150.167 89.4982 150.89 88.9398 151.618 88.3727L150.785 87.3042C150.061 87.8687 149.341 88.4244 148.625 88.9714L149.447 90.0479ZM153.71 86.7267C154.411 86.1701 155.116 85.6054 155.825 85.0327L154.973 83.979C154.268 84.5493 153.566 85.1115 152.868 85.6657L153.71 86.7267ZM157.962 83.2901C158.678 82.7011 159.398 82.1039 160.122 81.4985L159.253 80.4593C158.532 81.0624 157.815 81.6571 157.102 82.2437L157.962 83.2901ZM162.185 79.7591C162.858 79.1877 163.534 78.6092 164.213 78.0236L163.328 76.9976C162.652 77.5811 161.978 78.1574 161.308 78.7267L162.185 79.7591ZM166.26 76.2454C166.946 75.6456 167.635 75.0386 168.327 74.4243L167.428 73.4109C166.738 74.0231 166.052 74.628 165.368 75.2258L166.26 76.2454ZM170.414 72.5598C170.764 72.2454 171.114 71.9292 171.465 71.6112L170.556 70.607C170.206 70.924 169.857 71.2393 169.508 71.5526L170.414 72.5598ZM171.465 71.6112C171.826 71.2841 172.185 70.9585 172.542 70.6342L171.631 69.6316C171.275 69.9553 170.917 70.2805 170.556 70.607L171.465 71.6112ZM174.658 68.705C175.355 68.0675 176.044 67.4354 176.724 66.8087L175.806 65.8123C175.127 66.4379 174.44 67.0689 173.744 67.7055L174.658 68.705ZM178.74 64.9449C179.404 64.329 180.06 63.7186 180.707 63.1134L179.782 62.1236C179.136 62.7276 178.482 63.337 177.819 63.9517L178.74 64.9449ZM182.625 61.3141C183.257 60.7197 183.88 60.1305 184.495 59.5467L183.563 58.5639C182.949 59.1466 182.327 59.7345 181.697 60.3278L182.625 61.3141ZM186.318 57.8109C187.023 57.136 187.718 56.4683 188.402 55.8078L187.461 54.8332C186.779 55.4922 186.085 56.1584 185.381 56.8319L186.318 57.8109ZM190.436 53.8345C191.103 53.184 191.759 52.5408 192.404 51.9047L191.453 50.9397C190.81 51.5741 190.155 52.2158 189.49 52.8647L190.436 53.8345ZM194.309 50.0179C194.933 49.396 195.547 48.7813 196.15 48.1737L195.189 47.2191C194.588 47.825 193.976 48.4379 193.353 49.058L194.309 50.0179ZM197.929 46.3718C198.584 45.7053 199.225 45.0476 199.853 44.3986L198.88 43.4561C198.254 44.1029 197.615 44.7584 196.963 45.4227L197.929 46.3718ZM201.837 42.3352C202.484 41.6574 203.116 40.9895 203.733 40.3315L202.746 39.4042C202.13 40.0595 201.501 40.7248 200.857 41.4001L201.837 42.3352ZM205.544 38.3869C206.134 37.7484 206.709 37.1197 207.271 36.5006L206.268 35.5903C205.709 36.2064 205.136 36.8322 204.549 37.4678L205.544 38.3869ZM209.035 34.5365C209.693 33.7971 210.33 33.0722 210.946 32.3615L209.923 31.4736C209.31 32.18 208.677 32.9008 208.023 33.6362L209.035 34.5365ZM212.736 30.2722C213.313 29.5898 213.87 28.9215 214.407 28.2671L213.361 27.4072C212.827 28.0566 212.274 28.72 211.702 29.3977L212.736 30.2722ZM215.984 26.318C216.619 25.5207 217.223 24.7455 217.797 23.9918L216.72 23.1705C216.152 23.9162 215.553 24.684 214.924 25.4742L215.984 26.318ZM219.433 21.7949C219.949 21.0838 220.437 20.3938 220.897 19.7243L219.78 18.9573C219.327 19.6165 218.847 20.2969 218.337 20.9989L219.433 21.7949ZM222.463 17.3561C222.983 16.5367 223.457 15.7521 223.885 15.0012L222.709 14.3293C222.291 15.0604 221.829 15.8271 221.319 16.6303L222.463 17.3561ZM225.105 12.7199C225.572 11.7746 225.959 10.8904 226.269 10.0651L225.001 9.58849C224.709 10.3656 224.341 11.2082 223.89 12.1192L225.105 12.7199ZM227.046 7.43258C227.257 6.38135 227.307 5.44135 227.198 4.61267L225.855 4.79008C225.94 5.43607 225.907 6.22185 225.717 7.16569L227.046 7.43258ZM225.824 1.83165C225.09 1.16309 224.133 0.777237 223.059 0.606564L222.846 1.94452C223.738 2.08616 224.424 2.38947 224.912 2.83358L225.824 1.83165ZM220.17 0.584789C219.285 0.684506 218.347 0.869525 217.375 1.12903L217.724 2.43798C218.643 2.19265 219.514 2.02198 220.322 1.93102L220.17 0.584789ZM214.764 1.97031C213.931 2.28193 213.082 2.63846 212.225 3.03534L212.794 4.2646C213.622 3.88111 214.44 3.53801 215.239 3.23921L214.764 1.97031ZM209.739 4.2897C208.952 4.71872 208.166 5.17812 207.388 5.66465L208.105 6.81357C208.862 6.341 209.625 5.89508 210.387 5.47899L209.739 4.2897ZM205.092 7.19411C204.347 7.72287 203.615 8.2751 202.902 8.84778L203.751 9.90358C204.442 9.3484 205.152 8.81252 205.876 8.29903L205.092 7.19411ZM200.808 10.6463C200.128 11.27 199.476 11.9122 198.858 12.5699L199.846 13.4975C200.439 12.8656 201.068 12.2468 201.724 11.6442L200.808 10.6463ZM197.036 14.6857C196.456 15.4258 195.924 16.1811 195.448 16.9477L196.6 17.6617C197.046 16.9412 197.55 16.2264 198.102 15.5215L197.036 14.6857ZM194.14 19.4205C193.751 20.3101 193.447 21.2113 193.244 22.118L194.566 22.4142C194.748 21.6014 195.023 20.7826 195.381 19.9629L194.14 19.4205ZM192.954 24.9396C192.977 25.8985 193.129 26.8522 193.428 27.7916L194.719 27.3816C194.461 26.5689 194.328 25.7426 194.308 24.9074L192.954 24.9396ZM194.642 30.3539C195.119 31.0966 195.702 31.8192 196.395 32.5186L197.357 31.5646C196.725 30.9275 196.204 30.2783 195.782 29.6215L194.642 30.3539ZM198.605 34.3939C199.279 34.8819 200.019 35.3556 200.827 35.8138L201.495 34.6354C200.727 34.1997 200.03 33.7527 199.399 33.2962L198.605 34.3939ZM203.358 37.0955C204.139 37.4497 204.969 37.7926 205.85 38.1236L206.327 36.8553C205.472 36.5342 204.669 36.2026 203.917 35.8617L203.358 37.0955ZM208.367 38.9914C209.249 39.2705 210.174 39.5393 211.144 39.7973L211.492 38.4881C210.542 38.2352 209.637 37.9722 208.776 37.6998L208.367 38.9914ZM213.691 40.4257C214.517 40.6146 215.372 40.7964 216.257 40.9708L216.519 39.6417C215.647 39.4698 214.805 39.2907 213.993 39.105L213.691 40.4257ZM218.999 41.4716C219.925 41.6278 220.879 41.7766 221.863 41.9177L222.055 40.5767C221.082 40.4371 220.139 40.29 219.225 40.1358L218.999 41.4716ZM224.353 42.2502C225.203 42.3557 226.074 42.4558 226.966 42.5504L227.109 41.2032C226.225 41.1095 225.362 41.0102 224.52 40.9057L224.353 42.2502ZM229.704 42.8174C230.637 42.9008 231.592 42.9784 232.569 43.0502L232.668 41.6991C231.698 41.6278 230.75 41.5508 229.824 41.4681L229.704 42.8174ZM235.25 43.2291C236.086 43.2793 236.936 43.3255 237.802 43.3675L237.868 42.0143C237.007 41.9726 236.162 41.9267 235.332 41.8768L235.25 43.2291ZM240.444 43.4809C241.34 43.5144 242.252 43.5437 243.178 43.5687L243.215 42.2144C242.293 42.1896 241.386 42.1605 240.495 42.1271L240.444 43.4809ZM246.005 43.6302C246.951 43.6461 247.911 43.6576 248.887 43.6647L248.897 42.31C247.925 42.303 246.969 42.2915 246.028 42.2757L246.005 43.6302ZM251.405 43.6732C252.256 43.6728 253.118 43.6691 253.991 43.6621L253.98 42.3074C253.11 42.3144 252.252 42.318 251.404 42.3184L251.405 43.6732ZM256.645 43.6313C257.541 43.6176 258.449 43.6006 259.369 43.5802L259.338 42.2258C258.422 42.2461 257.518 42.2631 256.624 42.2767L256.645 43.6313ZM262.162 43.5086C263.105 43.4813 264.059 43.4505 265.026 43.4162L264.978 42.0623C264.014 42.0965 263.062 42.1272 262.123 42.1544L262.162 43.5086ZM267.731 43.3122C268.571 43.2775 269.42 43.2401 270.277 43.2002L270.214 41.8469C269.359 41.8867 268.513 41.924 267.675 41.9586L267.731 43.3122ZM272.876 43.0724C273.751 43.0272 274.635 42.9793 275.528 42.9287L275.452 41.5761C274.561 41.6266 273.679 41.6743 272.806 41.7195L272.876 43.0724ZM278.233 42.7688C279.144 42.7128 280.064 42.6541 280.993 42.5926L280.903 41.2408C279.976 41.3022 279.059 41.3608 278.15 41.4166L278.233 42.7688ZM283.806 42.3998C284.753 42.3327 285.709 42.2629 286.674 42.1902L286.572 40.8393C285.609 40.9118 284.655 40.9815 283.71 41.0484L283.806 42.3998ZM289.273 41.9894C290.118 41.9225 290.97 41.8534 291.829 41.7822L291.717 40.4321C290.86 40.5032 290.01 40.5721 289.166 40.6389L289.273 41.9894ZM294.426 41.5622C295.299 41.4867 296.178 41.409 297.065 41.3292L296.943 39.9799C296.058 40.0596 295.18 40.1371 294.309 40.2125L294.426 41.5622ZM299.746 41.083C300.647 40.9988 301.554 40.9123 302.469 40.8236L302.339 39.4752C301.425 39.5638 300.519 39.6501 299.62 39.7342L299.746 41.083ZM305.235 40.5508C306.164 40.4577 307.101 40.3622 308.044 40.2645L307.905 38.917C306.963 39.0145 306.028 39.1098 305.1 39.2029L305.235 40.5508ZM310.896 39.9645C311.753 39.873 312.616 39.7797 313.484 39.6845L313.337 38.3378C312.469 38.4329 311.608 38.5261 310.753 38.6174L310.896 39.9645ZM316.036 39.4014C316.892 39.3053 317.754 39.2073 318.621 39.1076L318.466 37.7617C317.6 37.8613 316.74 37.9591 315.885 38.0551L316.036 39.4014ZM321.239 38.8032C322.118 38.6999 323.002 38.5948 323.891 38.4879L323.73 37.1428C322.841 37.2496 321.958 37.3545 321.081 37.4577L321.239 38.8032ZM326.578 38.1617C327.479 38.0512 328.385 37.9388 329.298 37.8246L329.129 36.4803C328.218 36.5944 327.313 36.7066 326.413 36.817L326.578 38.1617ZM332.052 37.4763C332.976 37.3584 333.906 37.2386 334.841 37.117L334.666 35.7735C333.732 35.8951 332.804 36.0147 331.881 36.1325L332.052 37.4763ZM337.665 36.7464C338.138 36.6836 338.613 36.6205 339.09 36.5568L338.91 35.214C338.434 35.2776 337.96 35.3407 337.487 35.4033L337.665 36.7464Z" fill="#2E303A"/>
</svg>
