<svg width="89" height="18" viewBox="0 0 89 18" fill="none" xmlns="http://www.w3.org/2000/svg">
<path d="M0.637196 17.5V0.699999H7.6692C8.9012 0.699999 10.0292 0.907999 11.0532 1.324C12.0772 1.724 12.9572 2.3 13.6932 3.052C14.4452 3.804 15.0212 4.692 15.4212 5.716C15.8212 6.74 16.0212 7.868 16.0212 9.1C16.0212 10.332 15.8212 11.468 15.4212 12.508C15.0212 13.532 14.4452 14.42 13.6932 15.172C12.9572 15.908 12.0772 16.484 11.0532 16.9C10.0292 17.3 8.9012 17.5 7.6692 17.5H0.637196ZM4.7172 14.716L4.1652 13.9H7.5492C8.2212 13.9 8.8212 13.788 9.3492 13.564C9.8772 13.324 10.3252 12.996 10.6932 12.58C11.0772 12.164 11.3732 11.66 11.5812 11.068C11.7892 10.476 11.8932 9.82 11.8932 9.1C11.8932 8.38 11.7892 7.724 11.5812 7.132C11.3732 6.54 11.0772 6.036 10.6932 5.62C10.3252 5.204 9.8772 4.884 9.3492 4.66C8.8212 4.42 8.2212 4.3 7.5492 4.3H4.0932L4.7172 3.532V14.716ZM22.9923 17.716C21.9203 17.716 20.9603 17.436 20.1123 16.876C19.2803 16.3 18.6163 15.516 18.1203 14.524C17.6243 13.516 17.3763 12.38 17.3763 11.116C17.3763 9.82 17.6243 8.676 18.1203 7.684C18.6163 6.692 19.2963 5.916 20.1603 5.356C21.0243 4.78 22.0083 4.492 23.1123 4.492C23.7203 4.492 24.2723 4.58 24.7683 4.756C25.2803 4.932 25.7283 5.18 26.1123 5.5C26.4963 5.804 26.8243 6.164 27.0963 6.58C27.3683 6.98 27.5683 7.412 27.6963 7.876L26.9043 7.78V4.756H30.7203V17.5H26.8323V14.428L27.6963 14.404C27.5683 14.852 27.3603 15.276 27.0723 15.676C26.7843 16.076 26.4323 16.428 26.0163 16.732C25.6003 17.036 25.1363 17.276 24.6243 17.452C24.1123 17.628 23.5683 17.716 22.9923 17.716ZM24.0483 14.476C24.6403 14.476 25.1523 14.34 25.5843 14.068C26.0163 13.796 26.3523 13.412 26.5923 12.916C26.8323 12.404 26.9523 11.804 26.9523 11.116C26.9523 10.428 26.8323 9.836 26.5923 9.34C26.3523 8.828 26.0163 8.436 25.5843 8.164C25.1523 7.876 24.6403 7.732 24.0483 7.732C23.4723 7.732 22.9683 7.876 22.5363 8.164C22.1203 8.436 21.7923 8.828 21.5523 9.34C21.3123 9.836 21.1923 10.428 21.1923 11.116C21.1923 11.804 21.3123 12.404 21.5523 12.916C21.7923 13.412 22.1203 13.796 22.5363 14.068C22.9683 14.34 23.4723 14.476 24.0483 14.476ZM34.6846 17.5V1.54H38.5246V17.5H34.6846ZM32.4286 8.116V4.756H40.9966V8.116H32.4286ZM47.4758 17.74C46.2278 17.74 45.1238 17.54 44.1638 17.14C43.2198 16.74 42.4678 16.204 41.9078 15.532L44.2358 13.516C44.7318 14.012 45.2918 14.38 45.9158 14.62C46.5398 14.844 47.1318 14.956 47.6918 14.956C47.9158 14.956 48.1158 14.932 48.2918 14.884C48.4678 14.836 48.6118 14.772 48.7238 14.692C48.8518 14.596 48.9478 14.492 49.0118 14.38C49.0758 14.252 49.1078 14.108 49.1078 13.948C49.1078 13.628 48.9638 13.38 48.6758 13.204C48.5318 13.124 48.2918 13.028 47.9558 12.916C47.6198 12.804 47.1878 12.676 46.6598 12.532C45.9078 12.34 45.2518 12.116 44.6918 11.86C44.1478 11.588 43.6998 11.276 43.3478 10.924C43.0278 10.588 42.7798 10.22 42.6038 9.82C42.4278 9.404 42.3398 8.94 42.3398 8.428C42.3398 7.836 42.4758 7.3 42.7478 6.82C43.0358 6.34 43.4118 5.924 43.8758 5.572C44.3558 5.22 44.8998 4.956 45.5078 4.78C46.1318 4.588 46.7718 4.492 47.4278 4.492C48.1318 4.492 48.8038 4.572 49.4438 4.732C50.0838 4.892 50.6758 5.116 51.2198 5.404C51.7798 5.692 52.2758 6.036 52.7078 6.436L50.6918 8.692C50.4038 8.42 50.0758 8.18 49.7078 7.972C49.3558 7.748 48.9878 7.572 48.6038 7.444C48.2198 7.316 47.8678 7.252 47.5478 7.252C47.3078 7.252 47.0918 7.276 46.8998 7.324C46.7238 7.356 46.5718 7.42 46.4438 7.516C46.3158 7.596 46.2198 7.7 46.1558 7.828C46.0918 7.94 46.0598 8.076 46.0598 8.236C46.0598 8.396 46.0998 8.548 46.1798 8.692C46.2758 8.836 46.4038 8.956 46.5638 9.052C46.7238 9.148 46.9798 9.26 47.3318 9.388C47.6838 9.5 48.1638 9.644 48.7718 9.82C49.5238 10.028 50.1718 10.26 50.7158 10.516C51.2598 10.772 51.6918 11.076 52.0118 11.428C52.2678 11.7 52.4598 12.02 52.5878 12.388C52.7158 12.74 52.7798 13.124 52.7798 13.54C52.7798 14.356 52.5478 15.084 52.0838 15.724C51.6358 16.348 51.0118 16.844 50.2118 17.212C49.4118 17.564 48.4998 17.74 47.4758 17.74ZM54.5586 17.5V4.756H58.2066L58.3266 7.06L57.8226 7.084C58.0146 6.668 58.2546 6.3 58.5426 5.98C58.8466 5.66 59.1826 5.396 59.5506 5.188C59.9346 4.964 60.3266 4.796 60.7266 4.684C61.1426 4.572 61.5586 4.516 61.9746 4.516C62.5986 4.516 63.1666 4.612 63.6786 4.804C64.1906 4.996 64.6386 5.308 65.0226 5.74C65.4066 6.156 65.7106 6.724 65.9346 7.444L65.3346 7.396L65.5266 7.012C65.7346 6.628 65.9986 6.284 66.3186 5.98C66.6546 5.66 67.0226 5.396 67.4226 5.188C67.8226 4.964 68.2386 4.796 68.6706 4.684C69.1026 4.572 69.5186 4.516 69.9186 4.516C70.9266 4.516 71.7666 4.716 72.4386 5.116C73.1106 5.5 73.6146 6.084 73.9506 6.868C74.3026 7.652 74.4786 8.604 74.4786 9.724V17.5H70.6146V10.036C70.6146 9.524 70.5426 9.1 70.3986 8.764C70.2546 8.428 70.0386 8.18 69.7506 8.02C69.4786 7.844 69.1346 7.756 68.7186 7.756C68.3826 7.756 68.0706 7.812 67.7826 7.924C67.5106 8.036 67.2706 8.188 67.0626 8.38C66.8706 8.572 66.7186 8.796 66.6066 9.052C66.4946 9.308 66.4386 9.596 66.4386 9.916V17.5H62.5746V10.012C62.5746 9.532 62.5026 9.124 62.3586 8.788C62.2146 8.452 61.9986 8.196 61.7106 8.02C61.4226 7.844 61.0866 7.756 60.7026 7.756C60.3666 7.756 60.0546 7.812 59.7666 7.924C59.4946 8.036 59.2546 8.188 59.0466 8.38C58.8546 8.572 58.7026 8.796 58.5906 9.052C58.4786 9.308 58.4226 9.588 58.4226 9.892V17.5H54.5586ZM83.2606 17.74C81.8526 17.74 80.6286 17.46 79.5886 16.9C78.5486 16.324 77.7406 15.548 77.1646 14.572C76.5886 13.58 76.3006 12.452 76.3006 11.188C76.3006 10.212 76.4606 9.316 76.7806 8.5C77.1006 7.684 77.5486 6.98 78.1246 6.388C78.7006 5.78 79.3806 5.316 80.1646 4.996C80.9646 4.66 81.8366 4.492 82.7806 4.492C83.6766 4.492 84.4926 4.652 85.2286 4.972C85.9806 5.292 86.6286 5.74 87.1726 6.316C87.7166 6.892 88.1326 7.572 88.4206 8.356C88.7086 9.14 88.8366 9.996 88.8046 10.924L88.7806 11.956H78.6286L78.0766 9.796H85.6606L85.2526 10.252V9.772C85.2206 9.372 85.0926 9.02 84.8686 8.716C84.6606 8.396 84.3806 8.148 84.0286 7.972C83.6766 7.796 83.2766 7.708 82.8286 7.708C82.2046 7.708 81.6686 7.836 81.2206 8.092C80.7886 8.332 80.4606 8.692 80.2366 9.172C80.0126 9.636 79.9006 10.212 79.9006 10.9C79.9006 11.604 80.0446 12.22 80.3326 12.748C80.6366 13.26 81.0686 13.66 81.6286 13.948C82.2046 14.236 82.8846 14.38 83.6686 14.38C84.2126 14.38 84.6926 14.3 85.1086 14.14C85.5406 13.98 86.0046 13.708 86.5006 13.324L88.3006 15.868C87.8046 16.3 87.2766 16.652 86.7166 16.924C86.1566 17.196 85.5806 17.396 84.9886 17.524C84.4126 17.668 83.8366 17.74 83.2606 17.74Z" fill="#4961E8"/>
</svg>
