<svg width="310" height="340" viewBox="0 0 310 340" fill="none" xmlns="http://www.w3.org/2000/svg">
<path fill-rule="evenodd" clip-rule="evenodd" d="M52.9609 107.956L78.4222 248.503L88.6067 252.576L71.293 118.141L52.9609 107.956Z" fill="url(#paint0_linear_2_5927)"/>
<path d="M52.9609 107.956L71.293 118.141V63.1445L52.9609 107.956Z" fill="url(#paint1_linear_2_5927)"/>
<path d="M85.5513 111.012L71.293 63.1445V119.159L85.5513 111.012Z" fill="url(#paint2_linear_2_5927)"/>
<path d="M98.7911 92.6796L85.5513 111.012L71.293 63.1445L98.7911 92.6796Z" fill="url(#paint3_linear_2_5927)"/>
<path d="M85.5513 111.012L71.293 119.159L88.6066 252.576L123.234 251.558L106.939 178.229L85.5513 111.012Z" fill="url(#paint4_linear_2_5927)"/>
<path d="M98.7906 92.6797L85.5508 111.012L115.086 214.894L135.455 197.58L98.7906 92.6797Z" fill="url(#paint5_linear_2_5927)"/>
<path fill-rule="evenodd" clip-rule="evenodd" d="M114.067 74.3469L85.5508 260.723L138.51 296.369L127.307 98.7897L114.067 74.3469Z" fill="url(#paint6_linear_2_5927)"/>
<path d="M161.935 0L114.067 74.3469L127.307 98.7897L161.935 0Z" fill="url(#paint7_linear_2_5927)"/>
<path d="M183.323 98.7897L161.936 0L127.309 98.7897L163.973 116.103L183.323 98.7897Z" fill="url(#paint8_linear_2_5927)"/>
<path d="M208.778 88.6052L161.93 0L183.317 98.7897L198.594 112.03L208.778 88.6052Z" fill="url(#paint9_linear_2_5927)"/>
<path d="M163.973 116.103L183.323 98.7891L198.6 112.029L188.415 135.453L163.973 116.103Z" fill="url(#paint10_linear_2_5927)"/>
<path d="M235.266 253.594L208.786 88.6055L187.398 134.436L190.454 270.908L235.266 253.594Z" fill="url(#paint11_linear_2_5927)"/>
<path d="M174.157 295.349L163.973 116.102L187.397 134.434L192.489 305.533L174.157 295.349Z" fill="url(#paint12_linear_2_5927)"/>
<path d="M127.309 98.7891L130.364 288.221L176.194 306.553L163.973 116.103L127.309 98.7891Z" fill="url(#paint13_linear_2_5927)"/>
<path d="M0 200.632L2.0369 164.987L46.8487 148.691L28.5166 189.429L0 200.632Z" fill="url(#paint14_linear_2_5927)"/>
<path d="M74.3469 322.847L0 200.633L28.5166 189.43L94.7159 294.33L98.7897 325.902L74.3469 322.847Z" fill="url(#paint15_linear_2_5927)"/>
<path d="M46.8477 148.691L28.5156 189.429L111.01 322.846L135.453 289.238L46.8477 148.691Z" fill="url(#paint16_linear_2_5927)"/>
<path d="M98.7886 325.902L94.7148 296.367L111.01 322.847L98.7886 325.902Z" fill="url(#paint17_linear_2_5927)"/>
<path d="M235.264 128.32L200.637 222.018V307.568L245.449 164.985L235.264 128.32Z" fill="url(#paint18_linear_2_5927)"/>
<path d="M235.264 128.32L200.637 222.018V307.568L245.449 164.985L235.264 128.32Z" fill="url(#paint19_linear_2_5927)"/>
<path d="M294.336 130.357L235.266 128.32L245.45 164.985L284.151 182.298L308.594 174.151L294.336 130.357Z" fill="url(#paint20_linear_2_5927)"/>
<path d="M284.148 182.296L294.333 130.355L309.61 174.149L284.148 182.296Z" fill="url(#paint21_linear_2_5927)"/>
<path d="M284.147 182.298L245.446 164.984L201.652 303.494L284.147 182.298Z" fill="url(#paint22_linear_2_5927)"/>
<path d="M244.429 296.366L199.617 305.532L284.149 182.3L309.61 174.152L244.429 296.366Z" fill="url(#paint23_linear_2_5927)"/>
<g opacity="0.32" filter="url(#filter0_f_2_5927)">
<ellipse cx="154.55" cy="230.008" rx="76.4144" ry="45.7712" transform="rotate(-1.79178 154.55 230.008)" fill="url(#paint24_radial_2_5927)"/>
</g>
<path d="M125.272 223.043L108.977 242.394L143.604 279.058L145.641 242.394L125.272 223.043Z" fill="url(#paint25_linear_2_5927)"/>
<path d="M101.844 295.35L108.973 242.391L143.6 279.055L124.25 322.848L101.844 295.35Z" fill="url(#paint26_linear_2_5927)"/>
<path d="M143.602 279.055L145.638 242.391L190.45 266.833L143.602 279.055Z" fill="url(#paint27_linear_2_5927)"/>
<path d="M156.838 195.543L125.266 223.041L145.635 242.392L190.446 266.835L156.838 195.543Z" fill="url(#paint28_linear_2_5927)"/>
<path d="M196.559 215.912L156.84 195.543L190.449 266.835L196.559 215.912Z" fill="url(#paint29_linear_2_5927)"/>
<path d="M215.91 306.552L196.56 215.91L190.449 266.833L215.91 306.552Z" fill="url(#paint30_linear_2_5927)"/>
<path d="M124.25 322.847L143.601 279.053L190.449 266.832L215.911 306.552L184.339 339.142L124.25 322.847Z" fill="url(#paint31_linear_2_5927)"/>
<defs>
<filter id="filter0_f_2_5927" x="23.4398" y="129.476" width="262.221" height="201.063" filterUnits="userSpaceOnUse" color-interpolation-filters="sRGB">
<feFlood flood-opacity="0" result="BackgroundImageFix"/>
<feBlend mode="normal" in="SourceGraphic" in2="BackgroundImageFix" result="shape"/>
<feGaussianBlur stdDeviation="27.3597" result="effect1_foregroundBlur_2_5927"/>
</filter>
<linearGradient id="paint0_linear_2_5927" x1="60.6919" y1="34.6801" x2="120.057" y2="43.8242" gradientUnits="userSpaceOnUse">
<stop stop-color="#E6FDFB"/>
<stop offset="1" stop-color="#C5FCF7"/>
</linearGradient>
<linearGradient id="paint1_linear_2_5927" x1="71.293" y1="63.1445" x2="84.2859" y2="69.8019" gradientUnits="userSpaceOnUse">
<stop stop-color="#E4FEFC"/>
<stop offset="1" stop-color="#C0FAF8"/>
</linearGradient>
<linearGradient id="paint2_linear_2_5927" x1="84.6214" y1="63.1445" x2="48.6371" y2="91.2323" gradientUnits="userSpaceOnUse">
<stop stop-color="#03D4AA"/>
<stop offset="1" stop-color="#0BEBDD"/>
</linearGradient>
<linearGradient id="paint3_linear_2_5927" x1="67.8557" y1="25.1809" x2="88.2496" y2="107.714" gradientUnits="userSpaceOnUse">
<stop stop-color="#01F9E9"/>
<stop offset="1" stop-color="#00ADA7"/>
</linearGradient>
<linearGradient id="paint4_linear_2_5927" x1="82.5581" y1="88.5684" x2="163.882" y2="112.819" gradientUnits="userSpaceOnUse">
<stop stop-color="#BBF3E7"/>
<stop offset="1" stop-color="#0EBA99"/>
</linearGradient>
<linearGradient id="paint5_linear_2_5927" x1="96.1687" y1="2.55534" x2="158.312" y2="190.655" gradientUnits="userSpaceOnUse">
<stop stop-color="#01F9E9"/>
<stop offset="1" stop-color="#027B77"/>
</linearGradient>
<linearGradient id="paint6_linear_2_5927" x1="101.896" y1="-51.1664" x2="226.458" y2="-29.0395" gradientUnits="userSpaceOnUse">
<stop offset="0.296875" stop-color="#E1FFFC"/>
<stop offset="1" stop-color="#62FFFA"/>
</linearGradient>
<linearGradient id="paint7_linear_2_5927" x1="158.879" y1="3.05535" x2="177.063" y2="30.5575" gradientUnits="userSpaceOnUse">
<stop stop-color="#AFF4EE"/>
<stop offset="1" stop-color="#C9FEFC"/>
</linearGradient>
<linearGradient id="paint8_linear_2_5927" x1="183.323" y1="98.7897" x2="129.937" y2="88.9965" gradientUnits="userSpaceOnUse">
<stop stop-color="#82FBE2"/>
<stop offset="1" stop-color="#C8FDFA"/>
</linearGradient>
<linearGradient id="paint9_linear_2_5927" x1="156.074" y1="-88.851" x2="218.458" y2="94.9285" gradientUnits="userSpaceOnUse">
<stop stop-color="#01F9E9"/>
<stop offset="1" stop-color="#00ADA7"/>
</linearGradient>
<linearGradient id="paint10_linear_2_5927" x1="171.112" y1="98.7891" x2="206.88" y2="124.379" gradientUnits="userSpaceOnUse">
<stop stop-color="#CCFFFB"/>
<stop offset="1" stop-color="#01FCE9"/>
</linearGradient>
<linearGradient id="paint11_linear_2_5927" x1="197.583" y1="-45.83" x2="324.083" y2="200.384" gradientUnits="userSpaceOnUse">
<stop stop-color="#01F9E9"/>
<stop offset="1" stop-color="#027B77"/>
</linearGradient>
<linearGradient id="paint12_linear_2_5927" x1="190.629" y1="116.102" x2="95.1571" y2="160.173" gradientUnits="userSpaceOnUse">
<stop stop-color="#EDFDFA"/>
<stop offset="1" stop-color="#BFFFFB"/>
</linearGradient>
<linearGradient id="paint13_linear_2_5927" x1="137.388" y1="98.7891" x2="211.38" y2="111.978" gradientUnits="userSpaceOnUse">
<stop stop-color="#B0FAF4"/>
<stop offset="1" stop-color="#2BD0C4"/>
</linearGradient>
<linearGradient id="paint14_linear_2_5927" x1="43.7934" y1="148.691" x2="21.7964" y2="209.531" gradientUnits="userSpaceOnUse">
<stop stop-color="#EDFDFA"/>
<stop offset="1" stop-color="#BFFFFB"/>
</linearGradient>
<linearGradient id="paint15_linear_2_5927" x1="49.3949" y1="189.43" x2="49.3949" y2="325.902" gradientUnits="userSpaceOnUse">
<stop stop-color="#ECEFFC"/>
<stop offset="1" stop-color="#82D2CB"/>
</linearGradient>
<linearGradient id="paint16_linear_2_5927" x1="51.2682" y1="20.2642" x2="113.577" y2="303.873" gradientUnits="userSpaceOnUse">
<stop stop-color="#01F9E9"/>
<stop offset="1" stop-color="#027B77"/>
</linearGradient>
<linearGradient id="paint17_linear_2_5927" x1="85.5488" y1="317.755" x2="105.806" y2="307.429" gradientUnits="userSpaceOnUse">
<stop stop-color="#01F9E9"/>
<stop offset="1" stop-color="#027B77"/>
</linearGradient>
<linearGradient id="paint18_linear_2_5927" x1="209.876" y1="128.32" x2="277.434" y2="141.115" gradientUnits="userSpaceOnUse">
<stop stop-color="#CCFFFB"/>
<stop offset="1" stop-color="#01FCE9"/>
</linearGradient>
<linearGradient id="paint19_linear_2_5927" x1="210.356" y1="101.386" x2="283.685" y2="116.393" gradientUnits="userSpaceOnUse">
<stop stop-color="#E6FDFB"/>
<stop offset="1" stop-color="#C5FCF7"/>
</linearGradient>
<linearGradient id="paint20_linear_2_5927" x1="259.708" y1="192.483" x2="243.664" y2="171.3" gradientUnits="userSpaceOnUse">
<stop stop-color="#E4FEFC"/>
<stop offset="1" stop-color="#C0FAF8"/>
</linearGradient>
<linearGradient id="paint21_linear_2_5927" x1="280.966" y1="89.1609" x2="306.354" y2="176.834" gradientUnits="userSpaceOnUse">
<stop stop-color="#01F9E9"/>
<stop offset="1" stop-color="#00ADA7"/>
</linearGradient>
<linearGradient id="paint22_linear_2_5927" x1="219.544" y1="143.025" x2="333.492" y2="198.182" gradientUnits="userSpaceOnUse">
<stop stop-color="#BBF3E7"/>
<stop offset="1" stop-color="#0EBA99"/>
</linearGradient>
<linearGradient id="paint23_linear_2_5927" x1="223.02" y1="77.2687" x2="258.244" y2="295.87" gradientUnits="userSpaceOnUse">
<stop stop-color="#01F9E9"/>
<stop offset="1" stop-color="#027B77"/>
</linearGradient>
<radialGradient id="paint24_radial_2_5927" cx="0" cy="0" r="1" gradientUnits="userSpaceOnUse" gradientTransform="translate(154.55 230.008) rotate(-174.533) scale(176.057 925.107)">
<stop stop-color="#0D2423"/>
<stop offset="0.555692" stop-color="#24553B" stop-opacity="0"/>
</radialGradient>
<linearGradient id="paint25_linear_2_5927" x1="143.25" y1="223.043" x2="113.638" y2="282.478" gradientUnits="userSpaceOnUse">
<stop stop-color="#EDFDFA"/>
<stop offset="1" stop-color="#BFFFFB"/>
</linearGradient>
<linearGradient id="paint26_linear_2_5927" x1="122.722" y1="242.391" x2="122.722" y2="322.848" gradientUnits="userSpaceOnUse">
<stop stop-color="#ECEFFC"/>
<stop offset="1" stop-color="#82D2CB"/>
</linearGradient>
<linearGradient id="paint27_linear_2_5927" x1="153.261" y1="242.391" x2="191.033" y2="278.952" gradientUnits="userSpaceOnUse">
<stop stop-color="#CCFFFB"/>
<stop offset="1" stop-color="#01FCE9"/>
</linearGradient>
<linearGradient id="paint28_linear_2_5927" x1="157.856" y1="195.543" x2="157.856" y2="266.835" gradientUnits="userSpaceOnUse">
<stop stop-color="#ECEFFC"/>
<stop offset="1" stop-color="#82D2CB"/>
</linearGradient>
<linearGradient id="paint29_linear_2_5927" x1="151.875" y1="139.001" x2="183.08" y2="261.477" gradientUnits="userSpaceOnUse">
<stop stop-color="#01F9E9"/>
<stop offset="1" stop-color="#00ADA7"/>
</linearGradient>
<linearGradient id="paint30_linear_2_5927" x1="195.867" y1="149.068" x2="256.251" y2="274.802" gradientUnits="userSpaceOnUse">
<stop stop-color="#01F9E9"/>
<stop offset="1" stop-color="#027B77"/>
</linearGradient>
<linearGradient id="paint31_linear_2_5927" x1="143.752" y1="213.508" x2="156.742" y2="335.566" gradientUnits="userSpaceOnUse">
<stop stop-color="#01F9E9"/>
<stop offset="1" stop-color="#027B77"/>
</linearGradient>
</defs>
</svg>
